<svg xmlns="http://www.w3.org/2000/svg" version="1.1" xmlns:xlink="http://www.w3.org/1999/xlink" xmlns:svgjs="http://svgjs.dev/svgjs" width="1000" height="750" viewBox="0 0 1000 750"><rect width="1000" height="750" fill="#151416"></rect><g transform="matrix(0.834,0,0,0.834,82.49454545454546,115.4193570850203)"><svg viewBox="0 0 396 247" data-background-color="#151416" preserveAspectRatio="xMidYMid meet" height="623" width="1000" xmlns="http://www.w3.org/2000/svg" xmlns:xlink="http://www.w3.org/1999/xlink"><g id="tight-bounds" transform="matrix(1,0,0,1,0.2400000000000091,-0.09999999999999432)"><svg viewBox="0 0 395.52 247.2" height="247.2" width="395.52"><g><svg></svg></g><g><svg viewBox="0 0 395.52 247.2" height="247.2" width="395.52"><g transform="matrix(1,0,0,1,75.54432,95.4412407361963)"><svg viewBox="0 0 244.43135999999998 56.31751852760736" height="56.31751852760736" width="244.43135999999998"><g><svg viewBox="0 0 244.43135999999998 56.31751852760736" height="56.31751852760736" width="244.43135999999998"><g><svg viewBox="0 0 244.43135999999998 56.31751852760736" height="56.31751852760736" width="244.43135999999998"><g><svg viewBox="0 0 244.43135999999998 56.31751852760736" height="56.31751852760736" width="244.43135999999998"><g id="textblocktransform"><svg viewBox="0 0 244.43135999999998 56.31751852760736" height="56.31751852760736" width="244.43135999999998" id="textblock"><g><svg viewBox="0 0 244.43135999999998 56.31751852760736" height="56.31751852760736" width="244.43135999999998"><g transform="matrix(1,0,0,1,0,0)"><svg width="244.43135999999998" viewBox="0.6 -38.9 220.03 50.7" height="56.31751852760736" data-palette-color="#ffffff"><path d="M29.25-38.9L37.7-8.2 39.7-8.2 39.7 0 20.1 0 20.1-8.2 23.1-8.2 22.3-12.2 15.5-12.2 14.7-8.2 17.7-8.2 17.7 0 0.6 0 0.6-8.2 2.6-8.2 11.05-38.9 29.25-38.9ZM18.65-27.45L16.6-17.5 21.2-17.5 19.15-27.45 18.65-27.45ZM53.55-30.55L43.35-30.55 43.35-38.9 53.55-38.9 53.55-30.55ZM43 11.8Q40.95 11.8 38.77 11.45 36.6 11.1 35.1 10.7L35.1 10.7 35.1 2.55Q37.45 2.9 39.3 2.9L39.3 2.9Q43.15 2.9 43.15-0.7L43.15-0.7 43.15-19.6 39.8-19.6 39.8-27.8 54.65-27.8 54.65-1.7Q54.65 5.15 51.75 8.47 48.85 11.8 43 11.8L43 11.8ZM83.8-8.2L86-8.2 86 0 72.8 0 72.8-3.4Q71.7-1.8 69.72-0.55 67.75 0.7 64.9 0.7L64.9 0.7Q61.15 0.7 59-1.3 56.85-3.3 56.85-6.95L56.85-6.95Q56.85-16.4 72.9-16.65L72.9-16.65Q72.75-18.35 71.6-18.98 70.45-19.6 67.7-19.6L67.7-19.6Q65.45-19.6 62.87-19.13 60.3-18.65 58.15-17.85L58.15-17.85 58.15-27.05Q60.8-27.7 63.9-28.1 67-28.5 69.95-28.5L69.95-28.5Q77.4-28.5 80.6-25.8 83.8-23.1 83.8-17.45L83.8-17.45 83.8-8.2ZM72.8-11.4L72.8-11.7Q70.55-11.7 69.32-11.1 68.1-10.5 68.1-9.1L68.1-9.1Q68.1-8.25 68.62-7.73 69.15-7.2 70.1-7.2L70.1-7.2Q71.4-7.2 72.1-8.3 72.8-9.4 72.8-11.4L72.8-11.4ZM103.79-27.8L117.69-27.8 117.69-19.6 115.79-19.6 109.24-2.25Q106.79 4.3 103.64 7.58 100.49 10.85 95.34 10.85L95.34 10.85Q93.24 10.85 91.09 10.43 88.94 10 87.19 9.25L87.19 9.25 87.19 0.2 94.09 0.2 94.09 0.7Q94.09 1.95 95.39 1.95L95.39 1.95Q96.54 1.95 97.14 0.85L97.14 0.85 89.24-19.6 87.34-19.6 87.34-27.8 102.19-27.8 102.19-19.6 100.49-19.6 103.09-11.8 105.49-19.6 103.79-19.6 103.79-27.8ZM123.59 0L115.79 0 115.79-8.2 123.59-8.2 123.59 0ZM136.74 0.7Q131.64 0.7 129.06-3.1 126.49-6.9 126.49-13.9L126.49-13.9Q126.49-20.9 129.06-24.7 131.64-28.5 136.74-28.5L136.74-28.5Q139.29-28.5 141.26-27.25 143.24-26 144.49-24.4L144.49-24.4 144.49-30.7 141.54-30.7 141.54-38.9 155.99-38.9 155.99-8.2 158.19-8.2 158.19 0 144.49 0 144.49-3.4Q143.24-1.8 141.26-0.55 139.29 0.7 136.74 0.7L136.74 0.7ZM141.59-8.2Q143.04-8.2 143.76-8.97 144.49-9.75 144.49-11.4L144.49-11.4 144.49-16.4Q144.49-18.05 143.76-18.82 143.04-19.6 141.59-19.6L141.59-19.6Q140.14-19.6 139.41-18.82 138.69-18.05 138.69-16.4L138.69-16.4 138.69-11.4Q138.69-9.75 139.41-8.97 140.14-8.2 141.59-8.2L141.59-8.2ZM174.69 0.7Q167.59 0.7 163.59-3.03 159.59-6.75 159.59-13.9L159.59-13.9Q159.59-21.05 163.59-24.78 167.59-28.5 174.69-28.5L174.69-28.5Q181.74-28.5 184.86-24.83 187.99-21.15 187.99-15.7L187.99-15.7 187.99-12.1 171.79-12.1 171.79-11.8Q171.79-9.95 172.89-9.08 173.99-8.2 176.54-8.2L176.54-8.2Q179.59-8.2 182.34-8.65 185.09-9.1 187.14-9.8L187.14-9.8 187.14-1.8Q185.39-0.85 182.01-0.08 178.64 0.7 174.69 0.7L174.69 0.7ZM171.79-17.6L177.59-17.6 177.59-18.2Q177.59-19.9 176.86-20.65 176.14-21.4 174.69-21.4L174.69-21.4Q173.24-21.4 172.51-20.63 171.79-19.85 171.79-18.2L171.79-18.2 171.79-17.6ZM212.38 0L197.48 0 191.18-19.6 189.08-19.6 189.08-27.8 204.53-27.8 204.53-19.6 202.43-19.6 205.08-9.7 205.58-9.7 208.23-19.6 206.13-19.6 206.13-27.8 220.63-27.8 220.63-19.6 218.53-19.6 212.38 0Z" opacity="1" transform="matrix(1,0,0,1,0,0)" fill="#ffffff" class="undefined-text-0" data-fill-palette-color="primary" id="text-0"></path></svg></g></svg></g></svg></g></svg></g><g></g></svg></g></svg></g></svg></g><g><path d="M82.789 82.146A122.216 122.216 0 0 1 312.731 82.146L307.652 82.146A117.137 117.137 0 0 0 87.868 82.146L82.789 82.146M82.789 165.054A122.216 122.216 0 0 0 312.731 165.054L307.652 165.054A117.137 117.137 0 0 1 87.868 165.054L82.789 165.054" fill="#ffffff" stroke="transparent" data-fill-palette-color="tertiary"></path></g></svg></g><defs></defs></svg><rect width="395.52" height="247.2" fill="none" stroke="none" visibility="hidden"></rect></g></svg></g></svg>